<?xml version="1.0" standalone="no"?>
<!DOCTYPE svg PUBLIC "-//W3C//DTD SVG 20010904//EN"
 "http://www.w3.org/TR/2001/REC-SVG-20010904/DTD/svg10.dtd">
<svg version="1.0" xmlns="http://www.w3.org/2000/svg"
 width="512.000000pt" height="512.000000pt" viewBox="0 0 512.000000 512.000000"
 preserveAspectRatio="xMidYMid meet">
<metadata>
Created by potrace 1.14, written by Peter Selinger 2001-2017
</metadata>
<g transform="translate(0.000000,512.000000) scale(0.100000,-0.100000)"
fill="#000000" stroke="none">
<path d="M2356 5109 c-94 -19 -175 -64 -243 -136 -34 -37 -65 -75 -69 -85 -3
-10 -9 -18 -14 -18 -13 0 -106 -196 -126 -265 -23 -82 -23 -193 0 -273 3 -9 7
-33 10 -52 3 -19 9 -48 12 -65 4 -16 7 -42 8 -57 0 -16 4 -28 8 -28 5 0 8 -10
8 -22 0 -13 30 -108 66 -213 36 -104 67 -198 69 -208 2 -9 7 -22 10 -27 3 -6
4 -10 2 -10 -5 0 -110 161 -112 170 0 3 -13 28 -29 55 -16 28 -47 82 -69 120
-22 39 -63 97 -91 131 -28 33 -64 77 -81 98 -16 21 -57 60 -90 86 -33 27 -80
67 -105 89 -85 79 -136 94 -345 107 -208 13 -295 8 -303 -16 -2 -6 -8 -10 -13
-10 -5 0 -47 -37 -93 -82 -88 -86 -145 -171 -167 -248 -20 -72 -14 -248 10
-314 6 -14 9 -26 6 -26 -5 0 39 -129 61 -177 44 -95 96 -145 330 -318 15 -11
41 -30 57 -42 17 -13 36 -23 43 -23 7 0 14 -3 16 -7 2 -5 28 -21 58 -36 30
-15 82 -43 115 -63 33 -19 69 -39 80 -44 11 -6 36 -20 55 -32 19 -11 55 -32
80 -46 25 -13 50 -29 55 -35 7 -7 6 -8 -2 -3 -11 6 -123 29 -206 42 -21 3 -93
19 -160 35 -66 16 -162 32 -211 35 -50 3 -113 6 -141 8 -27 2 -84 -3 -125 -10
-41 -7 -100 -14 -130 -15 -100 -5 -185 -46 -262 -126 -25 -26 -79 -79 -119
-117 -40 -39 -88 -92 -106 -119 -32 -48 -33 -51 -33 -161 0 -180 38 -301 122
-388 169 -175 444 -283 618 -244 14 3 93 19 175 35 83 16 188 43 235 61 96 36
203 70 207 67 3 -3 -202 -118 -242 -135 -16 -7 -32 -16 -35 -20 -3 -4 -22 -16
-42 -26 -31 -16 -175 -119 -302 -218 -53 -41 -76 -72 -116 -153 -65 -131 -92
-240 -95 -380 -3 -111 -1 -125 25 -187 15 -37 35 -74 44 -83 9 -9 16 -21 16
-26 0 -5 42 -50 92 -100 127 -123 128 -123 433 -104 152 9 143 8 190 24 51 18
99 49 155 101 25 23 63 56 85 73 48 37 67 57 120 123 21 27 42 51 45 54 16 13
89 121 114 170 16 30 69 120 117 200 100 167 124 208 155 270 30 58 29 46 -2
-75 -14 -55 -27 -108 -30 -117 -2 -10 -6 -26 -9 -35 -17 -66 -26 -101 -31
-123 -3 -14 -21 -79 -41 -145 -37 -127 -57 -219 -68 -325 -4 -36 -9 -74 -11
-85 -13 -63 -15 -158 -4 -211 11 -56 96 -254 109 -254 3 0 12 -14 20 -31 19
-43 168 -193 216 -217 71 -35 170 -52 290 -48 61 2 123 7 139 11 42 11 100 63
180 160 28 33 71 83 97 111 86 93 101 138 115 344 8 112 8 144 1 225 -12 125
-20 173 -49 270 -17 55 -32 107 -34 115 -24 93 -36 141 -43 175 -5 22 -21 78
-35 125 -15 47 -29 94 -32 105 -6 23 23 -22 64 -96 15 -28 32 -58 37 -67 36
-61 140 -250 174 -317 61 -118 131 -229 161 -255 3 -3 30 -39 59 -80 67 -94
101 -127 171 -166 159 -89 411 -138 542 -104 48 12 111 41 116 53 2 4 10 7 18
7 20 0 196 173 219 217 22 40 25 118 13 355 -7 141 -38 235 -94 283 -6 6 -45
51 -87 101 -114 137 -244 239 -442 348 -22 12 -78 47 -125 77 -47 31 -105 67
-130 81 -143 80 -165 93 -170 98 -3 4 -14 10 -24 13 -38 15 -9 15 49 1 73 -17
84 -19 210 -39 55 -9 128 -22 163 -30 34 -8 77 -17 95 -20 17 -3 40 -8 49 -11
33 -10 312 -13 352 -4 23 5 64 12 91 15 28 3 68 8 90 11 47 6 152 53 180 81
134 133 265 277 279 308 16 33 18 56 13 164 -7 176 -40 273 -120 353 -78 77
-132 116 -224 162 -171 84 -298 107 -418 74 -22 -6 -49 -12 -60 -13 -11 -1
-33 -5 -50 -9 -16 -3 -43 -9 -60 -12 -57 -10 -180 -46 -194 -58 -8 -6 -16 -10
-18 -8 -4 4 -116 -36 -183 -64 -20 -8 -42 -16 -50 -18 -15 -3 -48 -15 -62 -23
-5 -2 -8 1 -8 6 0 6 6 11 14 11 8 0 16 3 18 8 2 4 28 27 58 51 30 25 60 50 65
56 6 6 68 55 139 109 165 125 354 323 356 373 0 6 3 13 8 15 4 2 30 37 56 78
72 109 86 168 72 300 -3 36 -8 99 -11 140 -11 183 -22 210 -126 298 -159 136
-277 175 -449 148 -57 -9 -137 -33 -172 -52 -14 -8 -31 -14 -37 -14 -20 0
-179 -97 -219 -134 -51 -48 -250 -402 -267 -476 -4 -18 -51 -143 -69 -185 -7
-16 -23 -57 -36 -90 -13 -33 -27 -64 -32 -70 -5 -5 -5 2 1 16 5 15 12 44 16
66 3 21 8 50 11 63 3 14 7 41 10 60 7 53 11 71 24 120 13 49 18 71 26 110 2
14 7 31 9 39 3 7 8 63 11 125 3 61 7 127 8 146 2 19 -1 51 -5 70 -5 19 -11 62
-14 95 -18 183 -37 227 -139 331 -39 39 -100 101 -134 137 -101 105 -116 112
-257 114 -66 1 -142 -3 -169 -8z m945 -2866 c13 -15 12 -15 -8 -4 -24 12 -29
21 -14 21 5 0 15 -7 22 -17z"/>
</g>
</svg>
